{"title":"Apollo 13 (1995) Tom Hanks + Kevin Bacon (Optional MULTISUBS)","uid":4821202,"size":754394815,"categoryP":"video","categoryS":"movies","magnet":"?xt=urn:btih:3e722d04a3fc515185afc0fe0882306a9dec3ea0&amp;dn=Apollo+13+%281995%29+Tom+Hanks+%2B+Kevin+Bacon+%28Optional+MULTISUBS%29&amp;tr=udp%3A%2F%2Ftracker.openbittorrent.com%3A80&amp;tr=udp%3A%2F%2Fopen.demonii.com%3A1337&amp;tr=udp%3A%2F%2Ftracker.coppersurfer.tk%3A6969&amp;tr=udp%3A%2F%2Fexodus.desync.com%3A6969","seeders":1,"leechers":0,"uploader":"Kuthumi","files":-1,"time":1238771529,"description":" &lt;a href=&quot;http://www.imdb.com/title/tt0112384/&quot; rel=&quot;nofollow&quot; target=&quot;_NEW&quot;&gt;http://www.imdb.com/title/tt0112384/&lt;/a&gt;\n\nOptional subtitles in separate idx/sub files (Work in Windows Media Player etc.): Danish, Dutch, English for the hearing impaired, Finnish, Hebrew, Hungarian, Icelandic, Norwegian, Swedish.\n\nI just discovered that this classic double Oscar-winner, was not available here in a 700 MiB quality rip with multisubs, so I made one for you.\n\nMy new ripping procedure now produces decent quality for such a long film compressed into just 700 MiB. I enclose a sample for ye weak in faith. \n\nWidescreen DVDrip XviD 2-pass 704x288, great stereo sound AC3.\nRuns well in both my standalone DivX players.\n\nMediaInfo analysis:\n\nFormat/Info                      : Audio Video Interleave\nFile size                        : 692 MiB\nDuration                         : 2h 14mn\nOveral bit rate                  : 722 Kbps\n\nVideo\nFormat                           : MPEG-4 Visual\nFormat profile                   : Streaming Video@L1\nFormat settings, BVOP            : Yes\nFormat settings, QPel            : No\nFormat settings, GMC             : No warppoints\nFormat settings, Matrix          : Default\nMuxing mode                      : Packet Bitstream\nCodec ID                         : XVID\nCodec ID/Hint                    : XviD\nDuration                         : 2h 14mn\nBit rate                         : 584 Kbps\nWidth                            : 704 pixels\nHeight                           : 288 pixels\nDisplay aspect ratio             : 2.444\nFrame rate                       : 25.000 fps\nResolution                       : 8 bits\nColorimetry                      : 4:2:0\nScan type                        : Progressive\nBits/(Pixel*Frame)               : 0.115\nStream size                      : 560 MiB\nWriting library                  : XviD 1.2.0.dev47 (UTC 2006-11-01)\n\nAudio\nFormat                           : MPEG Audio\nFormat version                   : Version 1\nFormat profile                   : Layer 3\nCodec ID                         : 55\nCodec ID/Hint                    : MP3\nDuration                         : 2h 14mn\nBit rate mode                    : Constant\nBit rate                         : 128 Kbps\nMinimum bit rate                 : 128 Kbps\nChannel(s)                       : 2 channels\nSampling rate                    : 48.0 KHz\nResolution                       : 16 bits\nStream size                      : 123 MiB\nWriting library                  : LAME3.97 \nEncoding settings                : CBR\n\nSource: PAL retail 7.9 GiB","torrent":{"xt":"urn:btih:3e722d04a3fc515185afc0fe0882306a9dec3ea0","amp;dn":"Apollo+13+%281995%29+Tom+Hanks+%2B+Kevin+Bacon+%28Optional+MULTISUBS%29","amp;tr":["udp%3A%2F%2Ftracker.openbittorrent.com%3A80","udp%3A%2F%2Fopen.demonii.com%3A1337","udp%3A%2F%2Ftracker.coppersurfer.tk%3A6969","udp%3A%2F%2Fexodus.desync.com%3A6969"],"infoHash":"3e722d04a3fc515185afc0fe0882306a9dec3ea0","infoHashBuffer":{"type":"Buffer","data":[62,114,45,4,163,252,81,81,133,175,192,254,8,130,48,106,157,236,62,160]},"announce":[],"urlList":[]}}